PathFileType	4	(X/Y/Z)	c:/Users/goper/Files/vsCode/490R/osim_files/A05/A05_Slow_03.trc
DataRate	CameraRate	NumFrames	NumMarkers	Units                	OrigDataRate	OrigDataStartFrame	OrigNumFrames
250.00	250.00	11	36	mm	250.0	2089	2785
                Frame#	Time	LPSIS			LASIS			LTH1			LTH2			LTH3			LTH4			LLFE			LMFE			LSH1			LSH2			LSH3			LSH4			LLMAL			LMMAL			LCAL			LMTP5			LTOE			LMTP1			RPSIS			RASIS			RTH1			RTH2			RTH3			RTH4			RLFE			RMFE			RSH1			RSH2			RSH3			RSH4			RLMAL			RMMAL			RCAL			RMTP1			RTOE			RMTP5		
		X1	Y1	Z1	X2	Y2	Z2	X3	Y3	Z3	X4	Y4	Z4	X5	Y5	Z5	X6	Y6	Z6	X7	Y7	Z7	X8	Y8	Z8	X9	Y9	Z9	X10	Y10	Z10	X11	Y11	Z11	X12	Y12	Z12	X13	Y13	Z13	X14	Y14	Z14	X15	Y15	Z15	X16	Y16	Z16	X17	Y17	Z17	X18	Y18	Z18	X19	Y19	Z19	X20	Y20	Z20	X21	Y21	Z21	X22	Y22	Z22	X23	Y23	Z23	X24	Y24	Z24	X25	Y25	Z25	X26	Y26	Z26	X27	Y27	Z27	X28	Y28	Z28	X29	Y29	Z29	X30	Y30	Z30	X31	Y31	Z31	X32	Y32	Z32	X33	Y33	Z33	X34	Y34	Z34	X35	Y35	Z35	X36	Y36	Z36

2089	8.35200	0.00000	0.00000	0.00000	0.00000	0.00000	0.00000	0.00000	0.00000	0.00000	0.00000	0.00000	0.00000	-2793.26123	694.06158	581.96362	-2789.16919	651.02173	577.12122	-2768.02026	475.77136	545.93207	-2775.75342	477.55020	446.18933	-2714.43091	387.98547	549.85370	-2706.44434	345.77560	550.89154	-2771.44360	369.38303	539.41229	-2754.25073	328.53369	542.36755	-2676.05713	119.07182	536.41913	-2676.62476	126.29320	447.14560	0.00000	0.00000	0.00000	-2799.94263	46.75931	555.34015	-2849.02563	65.55215	491.82108	-2806.25928	63.28483	445.16705	-2734.33496	1020.48480	342.98792	-2915.82593	970.74426	233.73488	0.00000	0.00000	0.00000	0.00000	0.00000	0.00000	-3018.83862	635.85388	183.40816	-3033.30322	591.57739	194.95953	-2980.34326	529.50458	184.54057	-3024.33716	519.64093	323.27933	0.00000	0.00000	0.00000	0.00000	0.00000	0.00000	-3092.29053	289.24637	186.02905	-3099.07422	240.55486	191.42992	0.00000	0.00000	0.00000	-3140.87573	167.74809	291.03665	-3075.34888	62.56996	299.67331	-3273.05566	130.71698	257.20538	-3286.15503	151.28923	198.90733	0.00000	0.00000	0.00000
2090	8.35600	-3262.46313	120.55182	260.26227	0.00000	0.00000	0.00000	0.00000	0.00000	0.00000	0.00000	0.00000	0.00000	-2795.92358	694.08722	581.88354	-2791.61792	651.04889	577.06927	-2769.62012	475.91473	545.60620	-2777.65820	477.50378	446.19031	-2716.02563	388.34317	549.80194	-2707.75513	346.22189	550.84167	-2772.72412	369.39639	539.41663	-2755.34521	328.56952	542.42615	-2675.95215	118.82744	536.48328	-2677.18994	126.74721	447.18622	0.00000	0.00000	0.00000	-2800.12769	46.82081	555.36401	-2849.14551	65.31696	491.76602	-2806.40820	63.25496	445.11746	0.00000	0.00000	0.00000	-2919.47021	969.84424	233.54991	-2968.98486	604.57776	165.70326	0.00000	0.00000	0.00000	-3022.10645	635.33521	184.16216	0.00000	0.00000	0.00000	0.00000	0.00000	0.00000	-3027.40771	519.13025	324.46759	0.00000	0.00000	0.00000	0.00000	0.00000	0.00000	-3097.54883	289.02393	187.13921	-3104.69482	240.36224	192.52470	0.00000	0.00000	0.00000	-3147.37671	168.32466	291.79993	-3083.48047	62.69933	301.26813	-3280.06006	133.42995	258.41504	-3293.11938	153.35316	199.78415	0.00000	0.00000	0.00000
2091	8.36000	0.00000	0.00000	0.00000	0.00000	0.00000	0.00000	0.00000	0.00000	0.00000	0.00000	0.00000	0.00000	-2798.49023	694.00421	581.88776	-2794.01147	651.02948	577.03851	-2771.67700	475.95184	545.89490	-2779.58179	477.58743	446.20117	-2717.42725	388.63974	549.73669	-2709.09399	346.53949	550.87207	-2774.17603	369.47675	539.46149	-2756.70532	328.75784	542.46033	-2676.36401	119.29269	536.45514	-2677.67505	127.20015	447.23456	0.00000	0.00000	0.00000	-2800.13110	47.00345	555.10089	-2849.03784	65.03828	491.69339	-2806.56543	63.22852	445.07291	-2744.35840	1019.80927	342.70438	-2923.12915	968.93219	233.36237	-2971.39087	603.35785	166.10086	0.00000	0.00000	0.00000	-3024.33936	634.48303	184.60338	-3037.94751	589.68329	195.66847	-2985.79395	527.01691	186.29100	-3030.77588	518.86017	325.52097	0.00000	0.00000	0.00000	0.00000	0.00000	0.00000	-3102.45166	288.64850	188.17952	-3109.49170	239.91397	194.15254	0.00000	0.00000	0.00000	-3154.21338	168.85280	293.17078	-3090.95337	62.99406	303.07120	-3286.65210	135.58754	259.62976	-3299.57202	155.15575	200.78836	0.00000	0.00000	0.00000
2092	8.36400	0.00000	0.00000	0.00000	0.00000	0.00000	0.00000	0.00000	0.00000	0.00000	0.00000	0.00000	0.00000	-2801.39722	694.02307	581.87683	-2796.81006	651.06665	577.05518	-2773.61279	475.99884	545.91235	-2781.58765	477.59576	446.22079	-2718.89307	388.95172	549.73694	-2709.79370	346.65149	550.55530	-2775.70581	369.60257	539.47894	-2758.05908	328.98853	542.49396	-2676.73755	119.72910	536.50995	-2678.17700	127.69279	447.28561	0.00000	0.00000	0.00000	-2800.18384	46.99587	555.16675	-2849.45361	64.91481	491.71414	-2806.67358	63.21012	445.02682	-2747.61401	1018.63464	341.88379	-2926.79614	968.00873	233.12737	0.00000	0.00000	0.00000	0.00000	0.00000	0.00000	-3026.59937	633.72424	185.06197	-3040.77808	589.14130	196.05797	-2988.76147	525.91998	187.17979	-3034.37671	518.76483	326.34430	0.00000	0.00000	0.00000	0.00000	0.00000	0.00000	-3107.31763	288.32043	189.21165	-3115.20435	239.78957	194.66714	0.00000	0.00000	0.00000	-3160.00879	169.16518	294.38077	-3097.63477	63.11635	304.66980	-3292.58252	137.32933	260.96417	-3305.41943	156.41254	201.95779	0.00000	0.00000	0.00000
2093	8.36800	0.00000	0.00000	0.00000	0.00000	0.00000	0.00000	0.00000	0.00000	0.00000	0.00000	0.00000	0.00000	-2804.25903	694.01013	581.87085	-2799.31763	650.99329	577.02710	-2775.52808	476.13763	545.94855	-2783.48755	477.66928	446.23380	-2720.46143	389.27328	549.76447	-2711.80566	347.30801	550.85760	-2777.24023	369.71732	539.49396	-2759.35864	329.18558	542.56519	-2677.19971	120.16945	536.54932	-2678.58594	128.14153	447.35043	0.00000	0.00000	0.00000	-2800.31396	47.11402	555.18445	-2849.53760	64.63962	491.63318	-2806.78418	63.19030	444.99280	-2748.73730	1018.60895	340.65872	-2930.58325	967.16449	232.94423	0.00000	0.00000	0.00000	0.00000	0.00000	0.00000	-3028.19995	632.65918	185.32236	-3044.04395	588.74731	196.40335	0.00000	0.00000	0.00000	-3038.34863	518.76672	327.13113	0.00000	0.00000	0.00000	0.00000	0.00000	0.00000	-3111.70312	287.65680	190.22490	-3119.56616	239.25491	196.46231	0.00000	0.00000	0.00000	-3164.72241	169.11102	295.40662	-3103.54663	63.03867	306.43613	-3297.90991	138.59254	262.43384	-3310.70557	157.26950	203.32536	0.00000	0.00000	0.00000
2094	8.37200	0.00000	0.00000	0.00000	0.00000	0.00000	0.00000	0.00000	0.00000	0.00000	-2751.39600	655.18384	560.62024	-2807.08398	693.94849	581.85138	-2802.30322	651.03296	577.03986	-2777.52588	476.16797	545.90967	-2785.44312	477.81119	446.22897	-2722.17725	389.62839	549.80054	-2712.60156	347.43164	550.58179	-2778.71558	369.75116	539.47577	-2760.74829	329.31418	542.52618	-2677.72510	120.62753	536.65320	-2678.90796	128.61922	447.39185	0.00000	0.00000	0.00000	-2800.31958	46.82991	555.40881	-2849.64819	64.37830	491.58359	-2806.33618	62.85841	444.93704	-2752.76489	1019.01636	340.32703	-2934.26416	966.27094	232.73608	0.00000	0.00000	0.00000	0.00000	0.00000	0.00000	-3032.71387	633.01300	186.30453	-3047.63477	588.51605	196.76112	0.00000	0.00000	0.00000	-3042.32568	518.71851	327.72559	0.00000	0.00000	0.00000	0.00000	0.00000	0.00000	-3116.38599	287.22855	191.41443	-3124.07227	238.58354	197.65976	0.00000	0.00000	0.00000	-3169.94507	169.02446	297.12115	-3108.54102	62.96596	307.92007	-3301.47827	138.73868	263.56351	-3315.48950	157.63753	205.01062	0.00000	0.00000	0.00000
2095	8.37600	0.00000	0.00000	0.00000	0.00000	0.00000	0.00000	0.00000	0.00000	0.00000	0.00000	0.00000	0.00000	-2810.24854	693.93744	581.89545	-2804.89795	650.91760	577.08655	-2779.58228	476.23511	545.94476	-2787.47998	477.80585	446.25873	-2723.91162	389.97626	549.84900	-2714.08618	347.77716	550.67114	-2780.23877	369.78812	539.50653	-2762.12402	329.46289	542.55902	-2678.12012	121.04076	536.77881	-2679.35620	129.09912	447.45441	0.00000	0.00000	0.00000	-2800.43799	46.86188	555.44586	-2849.76050	64.09206	491.55701	-2806.46411	62.86317	444.90063	-2754.17529	1018.52930	337.50897	0.00000	0.00000	0.00000	0.00000	0.00000	0.00000	-3007.17090	566.09564	179.66423	-3036.24365	632.70764	186.96539	-3051.47778	588.28986	197.18098	0.00000	0.00000	0.00000	-3047.82593	518.84821	328.94516	0.00000	0.00000	0.00000	0.00000	0.00000	0.00000	-3118.06982	284.77457	192.89911	-3128.38062	237.97040	199.00627	0.00000	0.00000	0.00000	-3174.09912	168.54095	298.65488	-3112.51611	62.84068	309.34790	-3306.84033	138.75623	266.06741	-3319.86719	157.45415	207.01814	0.00000	0.00000	0.00000
2096	8.38000	0.00000	0.00000	0.00000	0.00000	0.00000	0.00000	0.00000	0.00000	0.00000	0.00000	0.00000	0.00000	-2813.29956	693.87164	581.94250	-2808.12085	650.83344	574.63629	-2781.69458	476.32904	545.98279	-2789.40894	477.85684	446.28592	-2725.61353	390.25629	549.93036	-2715.66626	348.17987	550.70935	-2781.88550	369.87045	539.55127	-2763.55786	329.64597	542.58319	-2678.51221	121.45549	536.84674	-2679.89331	129.62582	447.54913	0.00000	0.00000	0.00000	-2800.48218	46.81275	555.45679	-2849.83301	63.76860	491.50192	-2806.62134	62.82321	444.86203	-2757.96533	1016.96942	337.01117	-2941.94116	964.58954	232.24483	0.00000	0.00000	0.00000	-3011.13818	565.68756	180.68867	-3038.74268	631.72308	187.26033	-3057.86035	589.22955	198.26917	0.00000	0.00000	0.00000	-3051.55029	518.59772	329.32144	0.00000	0.00000	0.00000	0.00000	0.00000	0.00000	-3124.54028	285.67065	194.18620	-3132.42773	237.22023	200.46805	0.00000	0.00000	0.00000	-3177.28345	167.74155	300.03555	-3115.72461	62.52885	310.47861	-3310.52148	137.54753	268.26074	-3323.91284	156.71013	209.38354	0.00000	0.00000	0.00000
2097	8.38400	-3296.69702	122.44073	272.93747	0.00000	0.00000	0.00000	0.00000	0.00000	0.00000	0.00000	0.00000	0.00000	-2816.32324	693.78717	582.02588	-2810.75415	650.81769	577.18536	-2783.85645	476.33713	546.02319	-2791.54541	477.97467	446.33997	-2727.37134	390.57141	550.00317	-2717.22437	348.57996	550.80035	-2783.56274	369.94617	539.61108	-2765.05664	329.82724	542.66162	-2678.97925	121.89682	536.94196	-2676.50928	127.91468	446.77948	0.00000	0.00000	0.00000	-2800.60693	46.77921	555.47375	-2849.90894	63.41513	491.48605	-2806.74487	62.78498	444.83597	0.00000	0.00000	0.00000	-2945.79980	963.79138	231.96027	-2991.75586	599.18146	171.85625	0.00000	0.00000	0.00000	-3042.78662	631.46588	188.09610	-3059.87305	587.85004	198.40991	0.00000	0.00000	0.00000	-3054.50146	518.34253	329.33481	0.00000	0.00000	0.00000	0.00000	0.00000	0.00000	-3128.56567	284.85132	195.76666	-3134.10474	234.91852	201.36055	0.00000	0.00000	0.00000	-3180.94946	166.74084	302.09756	-3118.05200	62.32602	311.60483	-3313.70337	135.55211	270.68628	-3327.50708	155.23842	212.08603	0.00000	0.00000	0.00000
2098	8.38800	-3298.93018	119.53281	275.26608	0.00000	0.00000	0.00000	0.00000	0.00000	0.00000	0.00000	0.00000	0.00000	-2819.48218	693.71802	582.11163	-2813.65576	650.75275	577.27753	-2786.15332	476.76398	545.98486	-2793.54028	477.90845	446.40750	-2729.00757	390.82285	550.10785	-2720.14795	349.80823	551.52118	-2785.24805	370.01666	539.67468	-2766.65771	330.05856	542.76843	-2679.55078	122.40903	537.07666	-2677.00635	128.43539	446.86310	0.00000	0.00000	0.00000	-2800.70605	46.76192	555.50861	-2850.00171	63.09964	491.42188	-2807.48926	63.01315	444.83682	0.00000	0.00000	0.00000	0.00000	0.00000	0.00000	0.00000	0.00000	0.00000	-3019.82593	564.93707	182.72670	-3047.12720	631.20728	189.04260	-3064.37939	587.65973	199.19771	0.00000	0.00000	0.00000	-3058.36621	518.00146	329.88980	0.00000	0.00000	0.00000	0.00000	0.00000	0.00000	-3132.26416	283.90427	197.36575	-3139.43604	235.15538	203.60643	0.00000	0.00000	0.00000	-3182.99707	165.32150	303.67468	-3119.40503	61.81862	312.55280	-3316.31860	132.65344	273.37933	-3330.67139	153.28708	215.05322	0.00000	0.00000	0.00000
2099	8.39200	-3300.80884	116.20289	277.90338	0.00000	0.00000	0.00000	0.00000	0.00000	0.00000	0.00000	0.00000	0.00000	-2822.74194	693.65338	582.23041	-2816.81641	650.73956	577.37750	-2788.18677	476.48587	546.22180	-2792.47559	476.57773	445.89490	-2730.80078	391.11487	550.18604	-2721.76953	350.15906	551.60425	-2787.00024	370.09476	539.74078	-2768.16138	330.16119	542.81836	-2680.23706	122.97635	537.22571	-2677.56812	129.02689	446.97632	0.00000	0.00000	0.00000	-2800.84326	46.77830	555.52191	-2850.13208	62.81065	491.40656	-2807.64160	62.97874	444.83493	0.00000	0.00000	0.00000	-2953.87085	962.38019	231.37459	0.00000	0.00000	0.00000	-3024.46924	564.53558	183.69789	-3052.62817	631.48291	190.40709	-3069.04858	587.46838	200.15451	0.00000	0.00000	0.00000	-3063.22705	517.92957	330.91586	0.00000	0.00000	0.00000	0.00000	0.00000	0.00000	-3135.75024	282.76382	198.92526	-3142.56860	233.98204	205.23448	0.00000	0.00000	0.00000	-3184.99561	163.63293	305.57465	-3120.09668	61.49563	313.65866	-3318.43188	129.09496	276.24496	-3333.46094	150.65956	218.32039	0.00000	0.00000	0.00000
